<svg id="Capa_1" data-name="Capa 1" xmlns="http://www.w3.org/2000/svg" viewBox="0 0 1239.14 255"><defs><style>.cls-1{fill:#1a202c;}.cls-2,.cls-8{font-size:60px;}.cls-18,.cls-19,.cls-2,.cls-22,.cls-6{fill:#fff;}.cls-19,.cls-2,.cls-6,.cls-8{font-family:Dosis-SemiBold, Dosis;font-weight:600;}.cls-3{letter-spacing:0em;}.cls-13,.cls-4{letter-spacing:0em;}.cls-5{letter-spacing:-0.01em;}.cls-19,.cls-6{font-size:20px;}.cls-11,.cls-7{letter-spacing:-0.01em;}.cls-8{fill:#93ddfd;}.cls-9{fill:#ff8383;}.cls-10{fill:#ffe484;}.cls-11,.cls-12,.cls-13,.cls-14,.cls-15{fill:#b5f4a5;}.cls-14{letter-spacing:0em;}.cls-15,.cls-16{letter-spacing:0em;}.cls-17{letter-spacing:-0.04em;}.cls-18{stroke:#fff;stroke-miterlimit:10;}.cls-19{letter-spacing:-0.05em;}.cls-20{letter-spacing:0em;}.cls-21{letter-spacing:0em;}.cls-22{font-size:31.39px;font-family:MyriadPro-Regular, Myriad Pro;}</style></defs><title>anatomia_atributo</title><rect class="cls-1" width="1239.14" height="255"/><text class="cls-2" transform="translate(566 148)">S<tspan class="cls-3" x="30.72" y="0">o</tspan><tspan class="cls-4" x="59.64" y="0">y un ap</tspan><tspan class="cls-5" x="230.7" y="0">r</tspan><tspan x="251.58" y="0">endiz Sena</tspan></text><text class="cls-6" transform="translate(295 37)">Atribu<tspan class="cls-7" x="49.74" y="0">t</tspan><tspan x="56.18" y="0">o</tspan></text><text class="cls-8" transform="translate(44 147)">&lt;<tspan class="cls-9" x="24.66" y="0">p </tspan><tspan class="cls-10" x="67.02" y="0">class</tspan><tspan x="182.64" y="0">=”</tspan><tspan class="cls-11" x="230.04" y="0">t</tspan><tspan class="cls-12" x="249.36" y="0">ex</tspan><tspan class="cls-11" x="304.43" y="0">t</tspan><tspan class="cls-13" x="323.76" y="0">o-a</tspan><tspan class="cls-14" x="405.29" y="0">z</tspan><tspan class="cls-15" x="430.55" y="0">ul</tspan><tspan class="cls-16" x="475.43" y="0">”&gt;</tspan></text><text class="cls-8" transform="translate(1096.25 146.5)">&lt;<tspan class="cls-17" x="24.66" y="0">/</tspan><tspan class="cls-9" x="51" y="0">p</tspan><tspan x="81.36" y="0">&gt;</tspan></text><polygon class="cls-18" points="526.63 91.68 522.89 91.68 522.89 67.42 126.12 67.42 126.12 91 122.38 91 122.38 61.47 526.63 61.47 526.63 91.68"/><polygon class="cls-18" points="272.78 165.67 275.06 165.67 275.06 185.86 517.16 185.86 517.16 166.23 519.44 166.23 519.44 190.81 272.78 190.81 272.78 165.67"/><text class="cls-19" transform="translate(322.18 234.01)">V<tspan class="cls-20" x="10.3" y="0">alor del Atribu</tspan><tspan class="cls-7" x="123.12" y="0">t</tspan><tspan class="cls-21" x="129.56" y="0">o</tspan></text><text class="cls-22" transform="translate(320.44 67.49) scale(2.04 1)">l</text><text class="cls-22" transform="translate(383.93 208.77) scale(2.04 1)">l</text></svg>