<svg id="Capa_1" data-name="Capa 1" xmlns="http://www.w3.org/2000/svg" viewBox="0 0 913.04 511.96"><defs><style>.cls-1{fill:#1a202c;}.cls-2{font-size:30px;fill:#93ddfd;font-family:Dosis-SemiBold, Dosis;font-weight:600;}.cls-3,.cls-4{fill:#ff8383;}.cls-3{letter-spacing:0em;}.cls-5{font-size:24px;}.cls-19,.cls-20,.cls-5{fill:#fff;}.cls-20,.cls-5{font-family:MyriadPro-Regular, Myriad Pro;}.cls-6{letter-spacing:0.01em;}.cls-7{letter-spacing:0em;}.cls-8{letter-spacing:-0.01em;}.cls-9{letter-spacing:0em;}.cls-10{letter-spacing:-0.01em;}.cls-11{letter-spacing:0em;}.cls-12{letter-spacing:0em;}.cls-13{letter-spacing:-0.01em;}.cls-14{letter-spacing:-0.01em;}.cls-15{letter-spacing:-0.01em;}.cls-16{letter-spacing:0em;}.cls-17{letter-spacing:-0.01em;}.cls-18{letter-spacing:-0.01em;}.cls-19{stroke:#fff;stroke-miterlimit:10;}.cls-20{font-size:31.39px;}.cls-21{letter-spacing:-0.01em;}.cls-22{letter-spacing:-0.01em;}.cls-23{letter-spacing:-0.01em;}</style></defs><title>anatomia_documento</title><rect class="cls-1" width="913.04" height="511.96"/><text class="cls-2" transform="translate(453.75 55.03)">&lt;<tspan class="cls-3" x="12.33" y="0">html </tspan><tspan x="74.43" y="0">&gt;</tspan></text><text class="cls-2" transform="translate(453.75 468.92)">&lt;/<tspan class="cls-4" x="26.76" y="0">html</tspan><tspan x="82.86" y="0">&gt;</tspan></text><text class="cls-2" transform="translate(535.73 93.81)">&lt;<tspan class="cls-3" x="12.33" y="0">head</tspan><tspan x="70.98" y="0">&gt;</tspan></text><text class="cls-2" transform="translate(535.73 199.67)">&lt;<tspan class="cls-3" x="12.33" y="0">head</tspan><tspan x="70.98" y="0">&gt;</tspan></text><text class="cls-2" transform="translate(535.73 302.98)">&lt;<tspan class="cls-4" x="12.33" y="0">body</tspan><tspan x="71.04" y="0">&gt;</tspan></text><text class="cls-2" transform="translate(535.73 406.24)">&lt;<tspan class="cls-4" x="12.33" y="0">body</tspan><tspan x="71.04" y="0">&gt;</tspan></text><text class="cls-5" transform="translate(603.62 131.03)"><tspan class="cls-6">I</tspan><tspan class="cls-7" x="5.98" y="0">n</tspan><tspan class="cls-8" x="19.3" y="0">f</tspan><tspan x="25.99" y="0">o</tspan><tspan class="cls-9" x="39.17" y="0">r</tspan><tspan class="cls-7" x="47.11" y="0">mación </tspan><tspan class="cls-10" x="126.65" y="0">t</tspan><tspan class="cls-7" x="134.45" y="0">écnica </tspan><tspan x="0" y="28.8">pa</tspan><tspan class="cls-11" x="25.22" y="28.8">r</tspan><tspan class="cls-12" x="32.95" y="28.8" xml:space="preserve">a  el n</tspan><tspan class="cls-13" x="90.79" y="28.8">a</tspan><tspan class="cls-14" x="102.17" y="28.8">v</tspan><tspan class="cls-7" x="113.47" y="28.8">egador</tspan></text><text class="cls-5" transform="translate(609.76 343.12)"><tspan class="cls-15">C</tspan><tspan x="13.66" y="0">o</tspan><tspan class="cls-16" x="26.83" y="0">n</tspan><tspan class="cls-10" x="40.06" y="0">t</tspan><tspan class="cls-7" x="47.86" y="0">enido que apa</tspan><tspan class="cls-17" x="191.25" y="0">r</tspan><tspan x="198.86" y="0">e</tspan><tspan class="cls-10" x="210.88" y="0">c</tspan><tspan x="221.49" y="0">e</tspan><tspan x="0" y="28.8">en la pa</tspan><tspan class="cls-18" x="77.97" y="28.8">g</tspan><tspan x="91.25" y="28.8">ina </tspan><tspan class="cls-14" x="126.84" y="28.8">w</tspan><tspan x="144.26" y="28.8">eb</tspan></text><polygon class="cls-19" points="338.32 48.47 338.32 52.38 314.06 52.38 314.06 467.01 337.64 467.01 337.64 470.92 308.11 470.92 308.11 48.47 338.32 48.47"/><text class="cls-20" transform="matrix(0, -2.13, 1, 0, 314.13, 263.94)">l</text><text class="cls-5" transform="translate(117.76 263.48)"><tspan class="cls-21">L</tspan><tspan x="10.99" y="0">enguaje HTML</tspan></text><polygon class="cls-19" points="486.73 82.58 486.73 83.62 462.47 83.62 462.47 193.33 486.05 193.33 486.05 194.37 456.51 194.37 456.51 82.58 486.73 82.58"/><text class="cls-20" transform="matrix(0, -0.56, 1, 0, 462.53, 139.6)">l</text><polygon class="cls-19" points="486.79 291.81 486.79 292.85 462.54 292.85 462.54 402.56 486.11 402.56 486.11 403.6 456.58 403.6 456.58 291.81 486.79 291.81"/><text class="cls-20" transform="matrix(0, -0.56, 1, 0, 462.6, 348.83)">l</text><text class="cls-5" transform="translate(331.21 144.6)"><tspan class="cls-22">C</tspan><tspan x="13.75" y="0">abe</tspan><tspan class="cls-10" x="51" y="0">c</tspan><tspan x="61.61" y="0">e</tspan><tspan class="cls-11" x="73.63" y="0">r</tspan><tspan x="81.36" y="0">a</tspan></text><text class="cls-5" transform="translate(344.28 354.7)"><tspan class="cls-23">C</tspan><tspan x="13.63" y="0">ue</tspan><tspan class="cls-9" x="38.88" y="0">r</tspan><tspan class="cls-7" x="46.82" y="0">po</tspan></text></svg>