<svg id="Capa_1" data-name="Capa 1" xmlns="http://www.w3.org/2000/svg" viewBox="0 0 821 255"><defs><style>.cls-1{fill:#1a202c;}.cls-11,.cls-2{font-size:60px;}.cls-14,.cls-15,.cls-16,.cls-2,.cls-6,.cls-8{fill:#fff;}.cls-11,.cls-2,.cls-6,.cls-8{font-family:Dosis-SemiBold, Dosis;font-weight:600;}.cls-3{letter-spacing:0em;}.cls-4{letter-spacing:0em;}.cls-5{letter-spacing:-0.01em;}.cls-6{font-size:18px;}.cls-7{letter-spacing:-0.01em;}.cls-8{font-size:20px;}.cls-9{letter-spacing:-0.01em;}.cls-10{letter-spacing:0em;}.cls-11{fill:#93ddfd;}.cls-12{fill:#ff8383;}.cls-13{letter-spacing:-0.04em;}.cls-14,.cls-15,.cls-16{stroke:#fff;stroke-miterlimit:10;}.cls-14{stroke-width:4px;}.cls-16{stroke-width:5px;}</style></defs><title>anatomia</title><rect class="cls-1" width="821" height="255"/><text class="cls-2" transform="translate(153 129)">S<tspan class="cls-3" x="30.72" y="0">o</tspan><tspan class="cls-4" x="59.64" y="0">y un ap</tspan><tspan class="cls-5" x="230.7" y="0">r</tspan><tspan x="251.58" y="0">endiz Sena</tspan></text><text class="cls-6" transform="translate(11 39)">Etiqueta de Apertura</text><text class="cls-6" transform="translate(672.23 38)">Etiqueta de Cier<tspan class="cls-7" x="113.81" y="0">r</tspan><tspan x="120.08" y="0">e</tspan></text><text class="cls-8" transform="translate(369.5 187)">Con<tspan class="cls-9" x="30.82" y="0">t</tspan><tspan class="cls-10" x="37.26" y="0">enido</tspan></text><text class="cls-8" transform="translate(371.5 239.16)">Elemen<tspan class="cls-9" x="60.22" y="0">t</tspan><tspan x="66.66" y="0">o</tspan></text><text class="cls-11" transform="translate(44 128)">&lt;<tspan class="cls-12" x="24.66" y="0">p</tspan><tspan x="55.02" y="0">&gt;</tspan></text><text class="cls-11" transform="translate(683.25 127.5)">&lt;<tspan class="cls-13" x="24.66" y="0">/</tspan><tspan class="cls-12" x="51" y="0">p</tspan><tspan x="81.36" y="0">&gt;</tspan></text><polygon class="cls-14" points="125.74 81 124.98 81 124.98 74.16 44.76 74.16 44.76 80.81 44 80.81 44 72.48 125.74 72.48 125.74 81"/><polygon class="cls-14" points="777.99 80.48 777.23 80.48 777.23 73.64 697 73.64 697 80.29 696.25 80.29 696.25 71.96 777.99 71.96 777.99 80.48"/><polygon class="cls-14" points="130.74 150.16 135.9 150.16 135.9 157 683.09 157 683.09 150.35 688.25 150.35 688.25 158.68 130.74 158.68 130.74 150.16"/><polygon class="cls-15" points="43 181.47 49.79 181.47 49.79 205.72 770.2 205.72 770.2 182.15 776.99 182.15 776.99 211.68 43 211.68 43 181.47"/><rect class="cls-16" x="85.03" y="56.05" width="1.68" height="14.71"/><rect class="cls-16" x="736.16" y="56.42" width="1.68" height="12.17"/></svg>