<svg id="Capa_1" data-name="Capa 1" xmlns="http://www.w3.org/2000/svg" viewBox="0 0 841.89 595.28"><defs><style>.cls-1,.cls-7{fill:#edeff2;}.cls-1,.cls-2,.cls-7{stroke:#211915;stroke-miterlimit:10;}.cls-1,.cls-2{stroke-width:7px;}.cls-2{fill:#fff;}.cls-3{fill:#a7c794;}.cls-4{fill:#90c4e1;}.cls-5{font-size:24px;fill:#211915;font-family:Arial-BoldMT, Arial;font-weight:700;}.cls-6{letter-spacing:-0.04em;}.cls-7{stroke-width:5px;}</style></defs><title>Mesa de trabajo 1</title><rect class="cls-1" x="71.59" y="98.84" width="206.67" height="95.36"/><rect class="cls-2" x="278.26" y="98.84" width="206.67" height="95.36"/><rect class="cls-2" x="484.92" y="98.84" width="206.67" height="95.36"/><rect class="cls-2" x="71.59" y="194.2" width="206.67" height="95.36"/><rect class="cls-2" x="278.26" y="194.2" width="206.67" height="95.36"/><rect class="cls-2" x="484.92" y="194.2" width="206.67" height="95.36"/><rect class="cls-2" x="71.59" y="289.55" width="206.67" height="95.36"/><rect class="cls-2" x="278.26" y="289.55" width="206.67" height="95.36"/><rect class="cls-2" x="484.92" y="289.55" width="206.67" height="95.36"/><rect class="cls-2" x="71.59" y="384.91" width="206.67" height="95.36"/><rect class="cls-2" x="278.26" y="384.91" width="206.67" height="95.36"/><rect class="cls-2" x="484.92" y="384.91" width="206.67" height="95.36"/><polygon class="cls-3" points="51.16 151.28 710.25 151.28 710.25 159.67 733.02 146.52 710.25 133.36 710.25 141.76 51.16 141.76 51.16 151.28"/><polygon class="cls-4" points="170.16 90.84 170.16 497.49 161.77 497.49 174.93 520.27 188.08 497.49 179.68 497.49 179.68 90.84 170.16 90.84"/><text class="cls-5" transform="translate(744.16 152.84)">FIL<tspan class="cls-6" x="35.99" y="0">A</tspan></text><text class="cls-5" transform="translate(112.73 542.98)">COLUMN<tspan class="cls-6" x="105.32" y="0">A</tspan></text><rect class="cls-7" x="484.92" y="513.93" width="59.09" height="44.91"/><text class="cls-5" transform="translate(561.3 544.98)">CELD<tspan class="cls-6" x="65.33" y="0">A</tspan></text></svg>