<svg xmlns="http://www.w3.org/2000/svg" viewBox="0 0 1000 400"><defs><style>.cls-1{isolation:isolate;}.cls-2{fill:#f5f5f5;}.cls-3{fill:#e0e0e0;}.cls-14,.cls-4{fill:#27debf;}.cls-5,.cls-7{opacity:0.15;}.cls-6{fill:#fff;}.cls-8{fill:#455a64;}.cls-9{fill:#37474f;}.cls-10{fill:#fafafa;}.cls-11,.cls-16,.cls-17{fill:#9f7aea;}.cls-11{opacity:0.71;}.cls-12{opacity:0.1;}.cls-13{opacity:0.2;}.cls-14,.cls-21{opacity:0.5;}.cls-15,.cls-18{opacity:0.3;}.cls-17{opacity:0.8;}.cls-19{fill:#ffa8a7;}.cls-20{fill:#263238;}.cls-21{mix-blend-mode:multiply;}.cls-22{fill:#f28f8f;}.cls-23{font-size:18px;font-family:Lato-Bold, Lato;font-weight:700;}</style></defs><g class="cls-1"><g id="Capa_1" data-name="Capa 1"><ellipse id="Floor" class="cls-2" cx="502.26" cy="243.35" rx="214.68" ry="126.12"/><path id="Shadow" class="cls-3" d="M360.36,292.36c5.31,1.05,10.88.77,16.22,1.84a63.81,63.81,0,0,1,10.64,3.45l9.34,3.67c.62.24,8.07,2.81,8.07,3.17,12.61,4.7,25.41,11.45,39.28,10.64a12.37,12.37,0,0,0,11.61-13.29c-.21-2.65-1.26-5.26-.87-7.88,1-7,7.49-6.31,12.69-5.11,3,.7,6,1.56,9,2.51,7.79,2.51,16,4.85,22.2,10.49,4,3.63,7.83,5.07,13.22,5.67,3.76.43,7.46.66,11.06,1.91s6.64,3.6,9.93,5.42a27.76,27.76,0,0,0,28.9-1.65c1.39-1,2.82-2.44,2.55-4.13-.66-4.07-7.47-4.9-10.36-6.61q-7.83-4.65-15.73-9.15-15.83-9-32-17.29c-11.55-5.91-23.25-11.57-35.44-16-6-2.18-12.86-4-18.6-1.21-4.64,2.26-6.46,6.55-9.47,10.37-2.79,3.55-6.42,7.21-10.53,9.21-3.28,1.58-7,2-10.64,2.12-12.07.54-24.14-.92-36-3.12-5-.93-10.1-2-15.21-1.69-5.47.34-14.44,1.74-17.42,7a6.86,6.86,0,0,0-1,2.67,5.06,5.06,0,0,0,1.79,4.15,10.55,10.55,0,0,0,4.13,2.12A25.92,25.92,0,0,0,360.36,292.36Z"/><ellipse id="Shadow-2" data-name="Shadow" class="cls-3" cx="633.03" cy="236.55" rx="19.43" ry="11.22"/><path id="Shadow-3" data-name="Shadow" class="cls-3" d="M618,307.92l-3.18-1.83c-2.15-1.24-2.15-3.26,0-4.5l7.07-4.08-25.59-14.77-7.07,4.08a8.62,8.62,0,0,1-7.79,0L578.26,285c-2.16-1.25-2.16-3.26,0-4.5l21.45-12.39a8.62,8.62,0,0,1,7.79,0l3.18,1.83c2.15,1.24,2.15,3.26,0,4.5l-7.81,4.51,25.59,14.77,7.81-4.5a8.56,8.56,0,0,1,7.79,0l3.17,1.83c2.16,1.24,2.16,3.26,0,4.5l-21.45,12.38A8.56,8.56,0,0,1,618,307.92Z"/><g id="Plants"><path class="cls-4" d="M672.31,182.54l-8.57-4.95s-2.1-18.37-.71-32.59c2-20,14.87-44,30.27-38.37s-7.06,26-12.06,42.94S672.31,182.54,672.31,182.54Z"/><path class="cls-5" d="M672.31,182.54l-8.57-4.95s-2.1-18.37-.71-32.59c2-20,14.87-44,30.27-38.37s-7.06,26-12.06,42.94S672.31,182.54,672.31,182.54Z"/><path class="cls-6" d="M667.8,180.45h0a.52.52,0,0,0,.5-.53c-1.51-44.4,20.6-66.74,20.82-67a.52.52,0,0,0-.73-.74c-.23.23-22.65,22.88-21.13,67.73A.52.52,0,0,0,667.8,180.45Z"/><path class="cls-4" d="M677.7,185.62l-6.1-3.52s-1-12.6,5.14-27.91c5.38-13.32,18.72-24.38,25.43-22.05s6.55,7.08,3.27,12.07S682.27,161.1,677.7,185.62Z"/><path class="cls-6" d="M674.48,184.28h0a.52.52,0,0,0,.52-.52c-.12-28.07,26.24-47,26.51-47.23a.53.53,0,0,0,.12-.73.51.51,0,0,0-.72-.12c-.27.19-27.07,19.48-26.95,48.09A.52.52,0,0,0,674.48,184.28Z"/></g><g id="Plants-2" data-name="Plants"><path class="cls-4" d="M344.84,174.6l7.22-4.18s4.31-17.87,2.59-34c-2.41-22.62-17.3-31.13-23-29.18s-7.3,8.54,2.07,22C339.29,137.23,346.08,153.79,344.84,174.6Z"/><g class="cls-7"><path d="M344.84,174.6l7.22-4.18s4.31-17.87,2.59-34c-2.41-22.62-17.3-31.13-23-29.18s-7.3,8.54,2.07,22C339.29,137.23,346.08,153.79,344.84,174.6Z"/></g><path class="cls-6" d="M347.83,165.82h-.07a.5.5,0,0,1-.4-.59c4-20.86-3.32-44.3-12.35-54a.51.51,0,0,1,0-.71.5.5,0,0,1,.71,0c9.19,9.93,16.62,33.75,12.6,54.92A.51.51,0,0,1,347.83,165.82Z"/><path class="cls-4" d="M325.9,185.54c-1.14.58-4.18-2-5-2.65a10.64,10.64,0,0,1-3.32-4.22,10,10,0,0,1-.58-6,22.89,22.89,0,0,1,.92-3.13c.34-1,.69-2,1-3a7.86,7.86,0,0,0,.6-3.08c-.16-2.12-1.95-3.69-3.59-5-1.8-1.5-3.67-3.45-3.53-6a8.94,8.94,0,0,1,2.5-5.19c1.29-1.47,2.8-2.75,4-4.32a6.26,6.26,0,0,0,1.48-3.87,6.51,6.51,0,0,0-.74-2.5,35.75,35.75,0,0,1-2.44-5.07c-.53-1.81-.33-4,1.12-5.2a5.78,5.78,0,0,1,4.41-.87,10.16,10.16,0,0,1,4,1.63c3.9,2.44,6,7.32,10.14,9.26a44,44,0,0,0,5.1,1.52,6.41,6.41,0,0,1,4.12,3.13c1.41,3.21-1.7,6.92-.76,10.3.82,3,3.62,4.26,5.09,7a6.24,6.24,0,0,1,.56,3.88,18.57,18.57,0,0,1-1.95,6.42,57.23,57.23,0,0,1-3.86,5.94Z"/><path class="cls-6" d="M337,179.77h0a.51.51,0,0,1-.46-.55c1.83-19.84-6.43-42.26-12.92-49a.5.5,0,1,1,.72-.7c6.62,6.86,15,29.66,13.2,49.78A.51.51,0,0,1,337,179.77Z"/><path class="cls-6" d="M335,155.31l-.14,0a67.57,67.57,0,0,0-14.32-3.06.5.5,0,0,1-.45-.54.49.49,0,0,1,.55-.46,68.75,68.75,0,0,1,14.56,3.11.52.52,0,0,1,.3.65A.51.51,0,0,1,335,155.31Z"/></g><g id="Dumbbell"><path class="cls-8" d="M604.94,256.42h0c-1.69-5.51-8.58-10.07-15-8.27h0a12.27,12.27,0,0,0-2.91,1.24c-6.24,3.61-11.31,12.38-11.31,19.6a11.8,11.8,0,0,0,.51,3.58h0c1.69,5.51,8.58,10.05,15,8.24h0a12,12,0,0,0,2.9-1.24c6.25-3.6,11.31-12.38,11.31-19.59A11.68,11.68,0,0,0,604.94,256.42Z"/><path class="cls-9" d="M594.13,279.57c6.25-3.6,11.31-12.38,11.31-19.59s-5.06-10.14-11.31-6.54-11.31,12.38-11.31,19.6S587.88,283.18,594.13,279.57Z"/><path class="cls-8" d="M594.13,261.44c2.4-1.38,4.35-.26,4.35,2.52a9.61,9.61,0,0,1-4.35,7.53c-2.4,1.39-4.35.27-4.35-2.51A9.64,9.64,0,0,1,594.13,261.44Z"/><path class="cls-9" d="M595.62,265.61a3.31,3.31,0,0,1-1.49,2.58,1,1,0,0,1-1,.13.6.6,0,0,1-.11-.06,1.09,1.09,0,0,1-.38-.93,3.34,3.34,0,0,1,1.49-2.59,1.1,1.1,0,0,1,1-.13l.11.07A1.06,1.06,0,0,1,595.62,265.61Z"/><path class="cls-10" d="M619.52,279.41A3.28,3.28,0,0,1,618,282a1.27,1.27,0,0,1-.64.2,1,1,0,0,1-.5-.15l-23.76-13.72a.6.6,0,0,1-.11-.06,1.09,1.09,0,0,1-.38-.93,3.34,3.34,0,0,1,1.49-2.59,1.1,1.1,0,0,1,1-.13l.11.07L619,278.39A1,1,0,0,1,619.52,279.41Z"/><path class="cls-8" d="M642.84,278.3h0c-1.69-5.52-8.58-10.08-15-8.28h0a12,12,0,0,0-2.9,1.23c-6.25,3.61-11.31,12.38-11.31,19.6a11.77,11.77,0,0,0,.5,3.58h0c1.69,5.51,8.58,10.05,15,8.24h0a12.52,12.52,0,0,0,2.89-1.23c6.25-3.61,11.32-12.38,11.32-19.6A11.88,11.88,0,0,0,642.84,278.3Z"/><path class="cls-9" d="M632,301.45c6.25-3.61,11.32-12.38,11.32-19.6s-5.07-10.14-11.32-6.54-11.31,12.38-11.31,19.6S625.78,305.05,632,301.45Z"/><path class="cls-8" d="M632,283.32c2.41-1.39,4.36-.27,4.36,2.51a9.63,9.63,0,0,1-4.36,7.54c-2.4,1.38-4.35.26-4.35-2.52A9.61,9.61,0,0,1,632,283.32Z"/><path class="cls-9" d="M633.51,287.48a3.3,3.3,0,0,1-1.48,2.58,1.08,1.08,0,0,1-1,.14.41.41,0,0,1-.11-.07,1.09,1.09,0,0,1-.39-.93,3.29,3.29,0,0,1,1.5-2.58,1,1,0,0,1,1-.13l.11.06A1.06,1.06,0,0,1,633.51,287.48Z"/><path class="cls-10" d="M637.12,289.56a3.29,3.29,0,0,1-1.49,2.58,1.28,1.28,0,0,1-.65.2,1.05,1.05,0,0,1-.5-.14l-3.45-2a.41.41,0,0,1-.11-.07,1.09,1.09,0,0,1-.39-.93,3.29,3.29,0,0,1,1.5-2.58,1,1,0,0,1,1-.13l.11.06,3.46,2A1,1,0,0,1,637.12,289.56Z"/><path class="cls-3" d="M637.12,289.55a3.33,3.33,0,0,1-1.49,2.59,1.1,1.1,0,0,1-1,.13l-.11-.06a1.12,1.12,0,0,1-.38-.94,3.31,3.31,0,0,1,1.49-2.58,1.05,1.05,0,0,1,1-.13l.11.06A1.09,1.09,0,0,1,637.12,289.55Z"/></g><g id="Water"><path class="cls-4" d="M646.71,212.58a32,32,0,0,0-2.27-5.87c-.1-.21-.2-.43-.31-.64a12,12,0,0,1,.16-11.34c.07-.12.14-.24.2-.36a12.77,12.77,0,0,0,1.76-6.67,7.88,7.88,0,0,0-3.81-6.32,12.57,12.57,0,0,0-1.77-.85,3,3,0,0,1-1.92-2.8l0-3.46-11.07,0v3.45a3,3,0,0,1-1.94,2.79,12.53,12.53,0,0,0-1.77.84,7.9,7.9,0,0,0-3.86,6.28,12.85,12.85,0,0,0,1.7,6.69c.07.11.13.23.19.34A12,12,0,0,1,622.1,206l-.31.64a31.53,31.53,0,0,0-2.32,5.85,27.84,27.84,0,0,0-.54,6l-.06,16.09c0,2.09,1.36,4.18,4.11,5.78a19.37,19.37,0,0,0,8,2.34,24.29,24.29,0,0,0,4,0,19.34,19.34,0,0,0,8-2.27c2.76-1.58,4.15-3.66,4.15-5.74l0-11.64c0-1.45.06-3,.07-4.49A27,27,0,0,0,646.71,212.58Z"/><path class="cls-11" d="M646.71,212.58a32,32,0,0,0-2.27-5.87c-.1-.21-.2-.43-.31-.64a12,12,0,0,1,.16-11.34c.07-.12.14-.24.2-.36a12.77,12.77,0,0,0,1.76-6.67,7.88,7.88,0,0,0-3.81-6.32,12.57,12.57,0,0,0-1.77-.85,3,3,0,0,1-1.92-2.8l0-3.46-11.07,0v3.45a3,3,0,0,1-1.94,2.79,12.53,12.53,0,0,0-1.77.84,7.9,7.9,0,0,0-3.86,6.28,12.85,12.85,0,0,0,1.7,6.69c.07.11.13.23.19.34A12,12,0,0,1,622.1,206l-.31.64a31.53,31.53,0,0,0-2.32,5.85,27.84,27.84,0,0,0-.54,6l-.06,16.09c0,2.09,1.36,4.18,4.11,5.78a19.37,19.37,0,0,0,8,2.34,24.29,24.29,0,0,0,4,0,19.34,19.34,0,0,0,8-2.27c2.76-1.58,4.15-3.66,4.15-5.74l0-11.64c0-1.45.06-3,.07-4.49A27,27,0,0,0,646.71,212.58Z"/><path class="cls-12" d="M644.29,194.73l.2-.36a12.7,12.7,0,0,0,1.72-5.65,10.1,10.1,0,0,1-1.05,2.29,21.74,21.74,0,0,1-5,5.2c-1.9,1.55-4,3.31-4.24,5.74s1.44,4.5,3.33,5.92,4.1,2.43,5.8,4.08a14.07,14.07,0,0,1,1.93,2.41,16.94,16.94,0,0,0-.29-1.78,32,32,0,0,0-2.27-5.87c-.1-.21-.2-.43-.31-.64A12,12,0,0,1,644.29,194.73Z"/><path class="cls-4" d="M625.84,178.08v1.86A3.74,3.74,0,0,0,628,183a11.78,11.78,0,0,0,10.63,0,5,5,0,0,0,1.65-1.43,2.75,2.75,0,0,0,.55-1.62v-1.89a1.67,1.67,0,0,0-.06-.5,4,4,0,0,0-2.12-2.58l-.11-.06a11.8,11.8,0,0,0-10.52,0,4,4,0,0,0-2.15,2.55A1.85,1.85,0,0,0,625.84,178.08Z"/><path class="cls-12" d="M625.84,178.08v1.86A3.74,3.74,0,0,0,628,183a11.78,11.78,0,0,0,10.63,0,5,5,0,0,0,1.65-1.43,2.75,2.75,0,0,0,.55-1.62v-1.89a1.67,1.67,0,0,0-.06-.5,4,4,0,0,0-2.12-2.58l-.11-.06a11.8,11.8,0,0,0-10.52,0,4,4,0,0,0-2.15,2.55A1.85,1.85,0,0,0,625.84,178.08Z"/><path class="cls-13" d="M638.65,181.19c2.94-1.69,3-4.43,0-6.14a11.76,11.76,0,0,0-10.62,0c-2.94,1.68-2.95,4.43,0,6.13A11.73,11.73,0,0,0,638.65,181.19Z"/><path class="cls-4" d="M625.84,175.92V177a1.92,1.92,0,0,0,.06.53,4,4,0,0,0,2.13,2.57,10.5,10.5,0,0,0,4.69,1.26,11.08,11.08,0,0,0,5.94-1.23,5.12,5.12,0,0,0,1.65-1.42,2.79,2.79,0,0,0,.49-1.11,1.85,1.85,0,0,0,.06-.52V176a3.73,3.73,0,0,0-2.18-3.08c-.14-.07-.27-.15-.41-.21a11.77,11.77,0,0,0-10.22.17A3.74,3.74,0,0,0,625.84,175.92Z"/><path class="cls-12" d="M625.84,175.92V177a1.92,1.92,0,0,0,.06.53,4,4,0,0,0,2.13,2.57,10.5,10.5,0,0,0,4.69,1.26,11.08,11.08,0,0,0,5.94-1.23,5.12,5.12,0,0,0,1.65-1.42,2.79,2.79,0,0,0,.49-1.11,1.85,1.85,0,0,0,.06-.52V176a3.73,3.73,0,0,0-2.18-3.08c-.14-.07-.27-.15-.41-.21a11.77,11.77,0,0,0-10.22.17A3.74,3.74,0,0,0,625.84,175.92Z"/><path class="cls-4" d="M625.84,175.88c0,2.38,3.35,4.33,7.5,4.35s7.52-1.91,7.53-4.29-3.35-4.34-7.5-4.35S625.85,173.49,625.84,175.88Z"/><path class="cls-4" d="M630.77,171.45v3.89a.55.55,0,0,0,0,.18,1.41,1.41,0,0,0,.73.89,4.08,4.08,0,0,0,3.69,0,1.75,1.75,0,0,0,.57-.49.9.9,0,0,0,.17-.39.52.52,0,0,0,0-.17l0-3.91a1.28,1.28,0,0,0-.76-1.06l-.14-.08a4.07,4.07,0,0,0-3.54.06A1.31,1.31,0,0,0,630.77,171.45Z"/><path class="cls-12" d="M630.77,171.45v3.89a.55.55,0,0,0,0,.18,1.41,1.41,0,0,0,.73.89,4.08,4.08,0,0,0,3.69,0,1.75,1.75,0,0,0,.57-.49.9.9,0,0,0,.17-.39.52.52,0,0,0,0-.17l0-3.91a1.28,1.28,0,0,0-.76-1.06l-.14-.08a4.07,4.07,0,0,0-3.54.06A1.31,1.31,0,0,0,630.77,171.45Z"/><path class="cls-4" d="M630.77,171.43c0,.83,1.16,1.51,2.6,1.51s2.6-.66,2.61-1.49-1.16-1.5-2.6-1.5S630.77,170.61,630.77,171.43Z"/><path class="cls-14" d="M632.45,171.44c0,.29.41.53.92.54s.93-.24.93-.53-.41-.53-.92-.54S632.45,171.15,632.45,171.44Z"/><path class="cls-15" d="M632.45,171.44c0,.29.41.53.92.54s.93-.24.93-.53-.41-.53-.92-.54S632.45,171.15,632.45,171.44Z"/></g><g id="Speach_Bubble" data-name="Speach Bubble"><path class="cls-4" d="M582.05,20l-65.28,37.7a2.22,2.22,0,0,0-1,1.75V86.57a2.19,2.19,0,0,0,1,1.73l3.61,2a2.25,2.25,0,0,0,2,0l65.29-37.7a2.24,2.24,0,0,0,1-1.75V23.72a2.21,2.21,0,0,0-1-1.74l-3.61-2A2.25,2.25,0,0,0,582.05,20Z"/><path class="cls-16" d="M521.39,89.73V62.58a2.21,2.21,0,0,1,1-1.74l65.29-37.71c.55-.32,1-.06,1,.59V50.86a2.24,2.24,0,0,1-1,1.75L522.4,90.31C521.84,90.63,521.39,90.37,521.39,89.73Z"/><path class="cls-17" d="M522.4,90.31a2.28,2.28,0,0,1-2,0l-3.61-2a2.18,2.18,0,0,1-1-1.73V59.42a2,2,0,0,1,.32-1l5.61,3.2a2,2,0,0,0-.3,1V89.73C521.39,90.32,521.81,90.66,522.4,90.31Z"/><path class="cls-17" d="M588.68,23.53c-.08-.5-.49-.69-1-.4L522.4,60.84a2.05,2.05,0,0,0-.71.75l-5.61-3.2a2.08,2.08,0,0,1,.69-.72L582.06,20a2.24,2.24,0,0,1,2,0l3.6,2A2.21,2.21,0,0,1,588.68,23.53Z"/><path class="cls-4" d="M513,80.58c-.63-.37-5.37-3-5.52-3.13a.93.93,0,0,1-.2-1.44l8.57-7.09,5.54,3.16-8.56,7.09A1,1,0,0,0,513,80.58Z"/><path class="cls-16" d="M513,80.58c-.63-.37-5.37-3-5.52-3.13a.93.93,0,0,1-.2-1.44l8.57-7.09,5.54,3.16-8.56,7.09A1,1,0,0,0,513,80.58Z"/><path class="cls-16" d="M521.39,72.08l-8.56,7.09a.9.9,0,0,0,.57,1.54l8-.93Z"/><path class="cls-10" d="M526.52,69.56a.75.75,0,0,1-.06-.39,1.25,1.25,0,0,1,.13-.44l2.51-4.88c.06-.12.14-.26.23-.42a.83.83,0,0,1,.31-.35l1.43-.82a.15.15,0,0,1,.22,0,.51.51,0,0,1,.09.34V76.06a1.2,1.2,0,0,1-.09.45.63.63,0,0,1-.22.29l-1.54.88a.16.16,0,0,1-.22,0,.56.56,0,0,1-.09-.35V68.23l-1.39,2.67a.45.45,0,0,1-.24.25c-.08,0-.15,0-.21-.1Z"/><path class="cls-10" d="M535.49,73.68a1.2,1.2,0,0,1-.09.45.5.5,0,0,1-.22.29l-1.53.89a.15.15,0,0,1-.22,0,.48.48,0,0,1-.1-.34V72.21a1,1,0,0,1,.1-.45.5.5,0,0,1,.22-.29l1.53-.89a.16.16,0,0,1,.22,0,.53.53,0,0,1,.09.34Z"/><path class="cls-10" d="M539.43,71.41a1.2,1.2,0,0,1-.09.45.63.63,0,0,1-.22.29l-1.53.89a.18.18,0,0,1-.23,0,.55.55,0,0,1-.09-.34V69.94a1.13,1.13,0,0,1,.09-.45.62.62,0,0,1,.23-.3l1.53-.88a.15.15,0,0,1,.22,0,.51.51,0,0,1,.09.34Z"/><path class="cls-10" d="M543.37,69.13a1.13,1.13,0,0,1-.09.45.62.62,0,0,1-.23.3l-1.53.88a.15.15,0,0,1-.22,0,.53.53,0,0,1-.09-.34V67.66a1.2,1.2,0,0,1,.09-.45.63.63,0,0,1,.22-.29l1.53-.89a.17.17,0,0,1,.23,0,.55.55,0,0,1,.09.34Z"/><path class="cls-10" d="M551.63,55.06a9.66,9.66,0,0,1-.07,1.2,9.51,9.51,0,0,1-.24,1.23,11.87,11.87,0,0,1-.44,1.31c-.18.45-.41.92-.67,1.42l-1.64,3.15,2.93-1.69a.16.16,0,0,1,.22,0,.49.49,0,0,1,.1.34v2.21a1,1,0,0,1-.1.45.57.57,0,0,1-.22.29l-6.17,3.56a.15.15,0,0,1-.22,0,.51.51,0,0,1-.09-.34V66.4a3.63,3.63,0,0,1,.07-.71,2.27,2.27,0,0,1,.27-.71l3.49-6.47a5.09,5.09,0,0,0,.51-1.28,4.67,4.67,0,0,0,.11-.92,3.28,3.28,0,0,0,0-.39,1.25,1.25,0,0,0-.13-.44.55.55,0,0,0-.3-.28.65.65,0,0,0-.52.11,1.52,1.52,0,0,0-.53.51,2.68,2.68,0,0,0-.32.63,3.84,3.84,0,0,0-.16.6c0,.19-.06.34-.08.43a1.2,1.2,0,0,1-.18.49,1,1,0,0,1-.29.26l-1.43.83a.13.13,0,0,1-.18,0,.39.39,0,0,1-.08-.28,10.39,10.39,0,0,1,.21-1.86,9.4,9.4,0,0,1,.6-1.91,8.25,8.25,0,0,1,1-1.73A4.69,4.69,0,0,1,548.48,52a2.2,2.2,0,0,1,1.36-.38,1.5,1.5,0,0,1,1,.51,3,3,0,0,1,.6,1.21A6.94,6.94,0,0,1,551.63,55.06Z"/><path class="cls-10" d="M555.67,62a1.2,1.2,0,0,1-.09.45.58.58,0,0,1-.22.29l-1.53.89a.16.16,0,0,1-.22,0,.49.49,0,0,1-.1-.34V60.56a1,1,0,0,1,.1-.45.56.56,0,0,1,.22-.3l1.53-.88a.15.15,0,0,1,.22,0,.53.53,0,0,1,.09.34Z"/><path class="cls-10" d="M559.61,59.76a1.2,1.2,0,0,1-.09.45.63.63,0,0,1-.22.29l-1.53.88a.17.17,0,0,1-.23,0,.55.55,0,0,1-.09-.34V58.28a1.12,1.12,0,0,1,.09-.44.62.62,0,0,1,.23-.3l1.53-.88a.15.15,0,0,1,.22,0,.51.51,0,0,1,.09.34Z"/><path class="cls-10" d="M563.55,57.48a1.13,1.13,0,0,1-.09.45.62.62,0,0,1-.23.3l-1.53.88a.15.15,0,0,1-.22,0,.53.53,0,0,1-.09-.34V56a1.2,1.2,0,0,1,.09-.45.63.63,0,0,1,.22-.29l1.53-.89a.17.17,0,0,1,.23,0,.55.55,0,0,1,.09.34Z"/><path class="cls-10" d="M571.39,39a.16.16,0,0,1,.22,0,.56.56,0,0,1,.1.35v2.2a1.29,1.29,0,0,1-.09.46,3.44,3.44,0,0,1-.15.4l-1.41,3.35a1.59,1.59,0,0,1,1.48.55,3.47,3.47,0,0,1,.57,2.27,8.48,8.48,0,0,1-.91,4.06,6.49,6.49,0,0,1-2.54,2.65,3.22,3.22,0,0,1-1.49.51,1.72,1.72,0,0,1-1.1-.3,2.13,2.13,0,0,1-.68-.93,3.83,3.83,0,0,1-.25-1.36.92.92,0,0,1,.07-.36.54.54,0,0,1,.19-.24l1.47-.85c.16-.1.29-.1.37,0l.29.26a.92.92,0,0,0,.41.19,1.2,1.2,0,0,0,.72-.22,2.86,2.86,0,0,0,.93-.87,2.23,2.23,0,0,0,.36-1.27c0-.48-.12-.77-.36-.85a1.17,1.17,0,0,0-.93.21l-1,.56a.17.17,0,0,1-.23,0,.55.55,0,0,1-.09-.34V47.59a1.54,1.54,0,0,1,.08-.46c.06-.16.11-.3.17-.43l1.23-2.94-3.05,1.77a.17.17,0,0,1-.22,0,.55.55,0,0,1-.09-.34V42.94a1.12,1.12,0,0,1,.09-.44.68.68,0,0,1,.22-.3Z"/><path class="cls-10" d="M576,50.31a1.2,1.2,0,0,1-.09.45.62.62,0,0,1-.22.3l-1.54.88a.15.15,0,0,1-.22,0,.53.53,0,0,1-.09-.34V48.84a1.2,1.2,0,0,1,.09-.45.64.64,0,0,1,.22-.29l1.54-.89a.16.16,0,0,1,.22,0,.55.55,0,0,1,.09.34Z"/><path class="cls-10" d="M579.91,48a1.2,1.2,0,0,1-.09.45.64.64,0,0,1-.23.29l-1.53.89a.16.16,0,0,1-.22,0,.55.55,0,0,1-.09-.34V46.57a1.13,1.13,0,0,1,.09-.45.62.62,0,0,1,.22-.3l1.53-.88a.16.16,0,0,1,.23,0,.53.53,0,0,1,.09.34Z"/><path class="cls-10" d="M583.85,45.77a1,1,0,0,1-.1.44.56.56,0,0,1-.22.3l-1.53.88a.15.15,0,0,1-.22,0,.51.51,0,0,1-.09-.34V44.29a1.2,1.2,0,0,1,.09-.45.57.57,0,0,1,.22-.29l1.53-.89a.17.17,0,0,1,.22,0,.49.49,0,0,1,.1.34Z"/></g><g id="Character"><g class="cls-18"><path d="M411.08,208.17l-.13,0-5.15-1.46a.71.71,0,0,1-.49-.88.72.72,0,0,1,.88-.49l5.15,1.46a.71.71,0,0,1-.26,1.39Z"/><path d="M405.79,212.16a.71.71,0,0,1-.11-1.39l5.19-1.32a.72.72,0,0,1,.87.52.71.71,0,0,1-.52.86L406,212.14A.65.65,0,0,1,405.79,212.16Z"/><path d="M408.4,217a.7.7,0,0,1-.44-.21.72.72,0,0,1,0-1l3.84-3.73a.72.72,0,0,1,1,0,.71.71,0,0,1,0,1L409,216.75A.7.7,0,0,1,408.4,217Z"/><path d="M413.06,219.79l-.13,0a.71.71,0,0,1-.49-.88l1.46-5.15a.7.7,0,0,1,.87-.49.71.71,0,0,1,.49.88l-1.45,5.15A.72.72,0,0,1,413.06,219.79Z"/></g><path class="cls-19" d="M553.66,139.87l-12.87,7.42-28.25,4.09s-20.64-31-23.8-35.85-6.85-8-15.41-8l1.61,24.71c.27.8,17.35,21.83,28.61,33.28,4,4.05,6.42,5.08,12.64,3.35,15.87-4.4,35.08-17.44,36.65-20.71C554.87,144,553.5,140,553.66,139.87Z"/><g id="Dumbbell-2" data-name="Dumbbell"><path class="cls-8" d="M548.36,124.2h0c1.69-5.51,8.58-10.07,15-8.27h0a12.21,12.21,0,0,1,2.9,1.24c6.25,3.6,11.31,12.38,11.31,19.59a11.88,11.88,0,0,1-.5,3.59h0c-1.69,5.51-8.58,10.05-15,8.24h0a12.39,12.39,0,0,1-2.9-1.24c-6.24-3.61-11.31-12.38-11.31-19.59A12,12,0,0,1,548.36,124.2Z"/><path class="cls-9" d="M559.17,147.35c-6.24-3.61-11.31-12.38-11.31-19.59s5.07-10.15,11.31-6.54,11.32,12.38,11.32,19.59S565.42,151,559.17,147.35Z"/><path class="cls-8" d="M559.17,129.22c-2.4-1.38-4.35-.26-4.35,2.52a9.62,9.62,0,0,0,4.35,7.53c2.41,1.39,4.36.26,4.36-2.51A9.61,9.61,0,0,0,559.17,129.22Z"/><path class="cls-9" d="M557.69,133.39a3.3,3.3,0,0,0,1.48,2.58,1.07,1.07,0,0,0,1,.13.39.39,0,0,0,.11-.06,1.09,1.09,0,0,0,.38-.93,3.3,3.3,0,0,0-1.49-2.59,1.08,1.08,0,0,0-1-.13l-.11.06A1.09,1.09,0,0,0,557.69,133.39Z"/><path class="cls-10" d="M533.78,147.19a3.27,3.27,0,0,0,1.49,2.57,1.19,1.19,0,0,0,.65.2,1.05,1.05,0,0,0,.5-.14l23.75-13.72a.39.39,0,0,0,.11-.06,1.09,1.09,0,0,0,.38-.93,3.3,3.3,0,0,0-1.49-2.59,1.08,1.08,0,0,0-1-.13l-.11.06-23.76,13.72A1,1,0,0,0,533.78,147.19Z"/><path class="cls-8" d="M510.46,146.07h0c1.69-5.51,8.58-10.07,15-8.27h0a12.46,12.46,0,0,1,2.9,1.24c6.25,3.61,11.32,12.38,11.32,19.6a11.8,11.8,0,0,1-.51,3.58h0c-1.68,5.51-8.57,10.05-15,8.24h0a12,12,0,0,1-2.9-1.24C515,165.62,510,156.84,510,149.63A12,12,0,0,1,510.46,146.07Z"/><path class="cls-9" d="M521.28,169.22C515,165.62,510,156.84,510,149.63s5.06-10.14,11.31-6.54,11.31,12.38,11.31,19.6S527.53,172.83,521.28,169.22Z"/><path class="cls-8" d="M521.28,151.1c-2.4-1.39-4.35-.27-4.35,2.51a9.61,9.61,0,0,0,4.35,7.53c2.4,1.39,4.35.27,4.35-2.51A9.61,9.61,0,0,0,521.28,151.1Z"/><path class="cls-9" d="M519.79,155.26a3.28,3.28,0,0,0,1.49,2.58,1,1,0,0,0,1,.13.6.6,0,0,0,.11-.06,1.09,1.09,0,0,0,.38-.93,3.31,3.31,0,0,0-1.49-2.58,1.08,1.08,0,0,0-1-.14l-.11.07A1.06,1.06,0,0,0,519.79,155.26Z"/><path class="cls-10" d="M516.19,157.34a3.28,3.28,0,0,0,1.49,2.58,1.27,1.27,0,0,0,.64.2,1,1,0,0,0,.5-.14l3.46-2a.6.6,0,0,0,.11-.06,1.09,1.09,0,0,0,.38-.93,3.31,3.31,0,0,0-1.49-2.58,1.08,1.08,0,0,0-1-.14l-.11.07-3.46,2A1.06,1.06,0,0,0,516.19,157.34Z"/><path class="cls-3" d="M516.19,157.33a3.28,3.28,0,0,0,1.49,2.58,1.08,1.08,0,0,0,1,.14l.1-.07a1.09,1.09,0,0,0,.39-.93,3.31,3.31,0,0,0-1.49-2.58,1,1,0,0,0-1-.13l-.11.06A1.06,1.06,0,0,0,516.19,157.33Z"/></g><path class="cls-19" d="M545.42,154.55c5.46-4.17,10.7-4.14,9.75-14.34-.8-4.53-1.91-4.82-6.32-6.52-1.92-.75-4.47-1.32-6,.45a4.73,4.73,0,0,1-.57.61,3.14,3.14,0,0,1-1.51.49A4.35,4.35,0,0,0,538,136.4c-.51.58-.71,1.39-1.21,2a15.81,15.81,0,0,1-1.56,1.25,3.74,3.74,0,0,0-1.29,2.75,4.13,4.13,0,0,0,1.66,3.05l2.75-1.59c1.13-.77,3.45,2,2.45,3.45C539.21,149.61,545.42,154.55,545.42,154.55Z"/><path class="cls-19" d="M481.79,175c1.74-7.06,2.25-24.69,2.25-24.69l-51.11,1.53L435.71,163a44.83,44.83,0,0,1,.74,7.6s4.95,9.19,19.66,10.81A39.83,39.83,0,0,0,481.79,175Z"/><path class="cls-8" d="M484,150.34c0,.56-.3,5.9-.3,5.9-6.54,5.5-27.5,8.28-49.48,1l-4.66-18s15.82-7,5.14-30.26l11.49-.89,20.4-.51h6.7a75.06,75.06,0,0,1,13.79,18.25C489.79,130.79,493.2,138.09,484,150.34Z"/><path class="cls-9" d="M455.15,150.5c-9.21-2.35-11.52-8.11-12.17-12.33,0,0-1.74,12.33,11.42,15.2,13.87,3,19.58-8,19.58-8S466.25,153.34,455.15,150.5Z"/><path class="cls-20" d="M376.77,287.71c-2.68,2-8.92,2.45-14.42-.13s-7.77-9.86-6.75-15.56c1.24-6.9,4.65-10.68,5.52-14.83s0-9.91,1.31-13.61a10.63,10.63,0,0,1,6.31-6.19,6.4,6.4,0,0,1,5.63.5l1.62,1Z"/><path class="cls-9" d="M383.21,261.39l-4.27,12.79s2.7,9.13,1.18,11.56c-2.24,3.59-6.19,4.23-12.84,2.2-7.61-2.32-9.4-9.2-9-14.55.54-7.62,7.58-13.36,6.78-20.68A16.93,16.93,0,0,1,367.09,242c2.21-3.46,5.83-4.11,9.59-3,3.21,1,6,3,8.77,4.89a9.86,9.86,0,0,1,2.11,1.8,7,7,0,0,1,1.08,2.17,11.47,11.47,0,0,1,.42,4.87c-.2,1.53-1.17,2.42-2.08,3.63Z"/><path class="cls-19" d="M401.6,255.33c-.27-.1-13.3-8.44-14.71-9.06s-4.85-1.53-8.19,6.2c-2.38,5.51,1,7.54,1,7.54L395,269.1Z"/><path class="cls-4" d="M378.94,274.18a18.89,18.89,0,0,0-8.89-2,1.4,1.4,0,0,1-1.48-1.81v0a1.41,1.41,0,0,1,1.22-1c2.07-.16,7.07-.22,10.39,2.52C381.06,273.73,378.94,274.18,378.94,274.18Z"/><path class="cls-4" d="M380.51,268.33a19.06,19.06,0,0,0-8.78-2.44,1.4,1.4,0,0,1-1.38-1.89v0a1.4,1.4,0,0,1,1.26-.89c2.07-.05,7.08.15,10.25,3.05C382.65,268,380.51,268.33,380.51,268.33Z"/><path class="cls-16" d="M378.94,274.18a18.89,18.89,0,0,0-8.89-2,1.4,1.4,0,0,1-1.48-1.81v0a1.41,1.41,0,0,1,1.22-1c2.07-.16,7.07-.22,10.39,2.52C381.06,273.73,378.94,274.18,378.94,274.18Z"/><path class="cls-16" d="M380.51,268.33a19.06,19.06,0,0,0-8.78-2.44,1.4,1.4,0,0,1-1.38-1.89v0a1.4,1.4,0,0,1,1.26-.89c2.07-.05,7.08.15,10.25,3.05C382.65,268,380.51,268.33,380.51,268.33Z"/><path class="cls-19" d="M513.32,289.09l16.93-6.71c-.29-4.36-1.36-10.18-.25-21.63l-19.2-3.66v19.23Z"/><path class="cls-20" d="M561.62,304a5.63,5.63,0,0,1-.23,4.15c-.58,1.22-6.93,4.79-15.48,4.22a35.65,35.65,0,0,1-17.7-6.19c-3.26-2.16-6.66-2.56-10.9-2.8s-9.8-2.36-10.73-4.34.14-5.4.14-5.4Z"/><path class="cls-9" d="M527.09,277.25l.67-.14a2.71,2.71,0,0,1,1.13-.06,2.24,2.24,0,0,1,1.06.71,21.07,21.07,0,0,1,2.18,3.44c1.8,2.92,5.56,5.34,9.68,7.56,2.79,1.5,5.53,2.66,8.42,4s6.85,2.14,9.15,3.69c3.36,2.26,3.8,7.95,0,10.2-3.3,1.93-12,4-21.09,1.45-5-1.4-10.47-6.71-17-7.21-4.14-.33-12-1.49-14.64-4.64-1-1.39.33-5.81,1.42-9.63,1.17-4.17,1.61-11.51,3-11.15,0,0-.37,1,.16,1.6s2.45,1.67,3,2.14a10.74,10.74,0,0,1,2.29,3.3,2.48,2.48,0,0,0,1.18,1.27c.7.27,1.22-.17,1.83-.46a3.59,3.59,0,0,1,2.48-.17,15.52,15.52,0,0,0-.44-2.45,1.43,1.43,0,0,1-.06-.79,1.26,1.26,0,0,1,.53-.59A13.31,13.31,0,0,1,527.09,277.25Z"/><path class="cls-4" d="M537.94,286.5a3.84,3.84,0,0,0-3.06-2c-1.88-.35-5.21,1-7.28,2.74a1.54,1.54,0,0,0,.22,2.55h0a1.54,1.54,0,0,0,1.77-.19A11.8,11.8,0,0,1,537.94,286.5Z"/><path class="cls-4" d="M543.78,289.77a4.42,4.42,0,0,0-3.62-1.86s-4.93.14-8,3a1.51,1.51,0,0,0,.21,2.47h0a1.49,1.49,0,0,0,1.7-.2A11.83,11.83,0,0,1,543.78,289.77Z"/><path class="cls-4" d="M550.23,292.72a5,5,0,0,0-3.77-1.68s-4.58.17-7.63,3a1.52,1.52,0,0,0,.21,2.47h0a1.48,1.48,0,0,0,1.7-.2A11.32,11.32,0,0,1,550.23,292.72Z"/><path class="cls-16" d="M537.94,286.5a3.84,3.84,0,0,0-3.06-2c-1.88-.35-5.21,1-7.28,2.74a1.54,1.54,0,0,0,.22,2.55h0a1.54,1.54,0,0,0,1.77-.19A11.8,11.8,0,0,1,537.94,286.5Z"/><path class="cls-16" d="M543.78,289.77a4.42,4.42,0,0,0-3.62-1.86s-4.93.14-8,3a1.51,1.51,0,0,0,.21,2.47h0a1.49,1.49,0,0,0,1.7-.2A11.83,11.83,0,0,1,543.78,289.77Z"/><path class="cls-16" d="M550.23,292.72a5,5,0,0,0-3.77-1.68s-4.58.17-7.63,3a1.52,1.52,0,0,0,.21,2.47h0a1.48,1.48,0,0,0,1.7-.2A11.32,11.32,0,0,1,550.23,292.72Z"/><path class="cls-16" d="M524.89,192.55c-12.86-2.89-43.6-9.31-43.6-9.31l.5-8.21c-11.12,5.76-34.55,4.14-45.34-4.42l-1.71,8.71a87.64,87.64,0,0,0-10.57,15.91c-2.47,4.88-6.59,12.5-2.49,30.26,2.41,10.43,5.63,37.89,5.63,37.89l-31.47-11.61s-2.72.46-5,6.36c-1.34,3.5-1.84,6.86-.42,8.59,11.51,9.1,30.18,24,49,32.3,12.59,4.82,19.3-5.78,19.92-9.7,2.36-15,5.09-63.32,5.09-63.32l42-1.34c-1.39,8,4.28,39.13,4.28,39.13s10.37,4.49,18.95-.11c0,0,5.75-35.86,6.3-47.81C536.66,202.53,537.34,195.35,524.89,192.55Z"/><path class="cls-5" d="M506.52,224.66c0-2.15,1.43-9.67,6.3-13.67,0,0-6.67,1.19-9.73,13.78Z"/><path class="cls-5" d="M427.31,263.38s.86,11.86,3.17,17.63c0,0-5.69-10.26-6.34-18.8Z"/><path class="cls-5" d="M481.28,183.24l.5-8.2c-11.12,5.75-34.53,4.12-45.33-4.42h0l-1.7,8.7h0c.08.09,7,7.24,25,8.18S481.28,183.24,481.28,183.24Z"/><path class="cls-5" d="M464.48,226a32.85,32.85,0,0,0-11-23.47s9.69,4.46,12.92,18.74c0,0,7.22-3.35,11-13.42,0,0-1.15,10.07-6.94,15.79l17.47,1.61Z"/><path class="cls-20" d="M458.82,44h0A28.13,28.13,0,0,0,430.69,72.1h0a28.12,28.12,0,0,0,28.13,28.13h0A28.12,28.12,0,0,0,486.94,72.1h0A28.13,28.13,0,0,0,458.82,44Z"/><path class="cls-20" d="M429.48,61.11a14.78,14.78,0,0,1,3,.17,1.4,1.4,0,0,1,.92.41,1.37,1.37,0,0,1,.22.69,9.9,9.9,0,0,1-.42,4.65c-.4,1-1.63,1.57-2.42,2.33-3,3-3.28,7.84-2.09,11.9s3.57,7.67,5.17,11.6,2.38,8.65.18,12.56c-.86,1.52-2.42,2.66-2.23,4.53.22,2.2,2.14,4.31,3,6.32a15.23,15.23,0,0,1,.93,7.42,15.64,15.64,0,0,1-3.36,8.51,12.88,12.88,0,0,1-12.28,4.22,6.19,6.19,0,0,1-2.59-1.11c-1.33-1.06-1.86-2.8-2.57-4.34-2.32-5-7.21-8.59-8.69-13.87-1.57-5.59,1.11-11.48,4.41-16.25,1.54-2.24,3.26-4.43,4-7,1-3.53.13-7.27-.11-10.93a30.61,30.61,0,0,1,1.21-10.6c.75-2.49,1.89-5.35,3.83-7.13A15.69,15.69,0,0,1,429.48,61.11Z"/><path class="cls-19" d="M476.45,56.85c3.08,1.83,6.87,9.62,6.42,25.91-.37,13.81-4.86,17.2-7.12,18.18s-6.58.36-10.79-.36l0,8.28s5.8,6.79,5.42,10.59-8.43,4.67-13.86.93-10-11-10-11l.17-19S444.16,92.73,440,89c-3.46-3.05-4.6-8.17-1.89-10.91a6.06,6.06,0,0,1,9.62,2s6.72.27,15.69-4.61A25.15,25.15,0,0,0,476.45,56.85Z"/><path class="cls-20" d="M467.47,79.23a1.74,1.74,0,1,1-1.82-1.73A1.77,1.77,0,0,1,467.47,79.23Z"/><g class="cls-21"><path class="cls-22" d="M467.88,90.94l4,1.3a2.08,2.08,0,0,1-2.63,1.44A2.22,2.22,0,0,1,467.88,90.94Z"/></g><path class="cls-20" d="M481.73,74l-3.51-2.45a2.05,2.05,0,0,1,2.92-.59A2.26,2.26,0,0,1,481.73,74Z"/><path class="cls-20" d="M480.9,78a1.76,1.76,0,0,1-1.65,1.88A1.81,1.81,0,1,1,480.9,78Z"/><g class="cls-21"><polygon class="cls-22" points="472.71 77 472.95 87.46 478.45 85.78 472.71 77"/></g><g class="cls-21"><path class="cls-22" d="M465,100.58c-4.44-.6-13.56-3.27-15-6.88a9.31,9.31,0,0,0,3.18,4.62c2.72,2.35,11.78,5,11.78,5Z"/></g><path class="cls-19" d="M434.74,109c-8.72.62-12.31,1.73-17.16,12.49-4.36,9.68-14.81,34.71-17.42,40.3s-3.1,7.82-.92,13.66c1.78,4.76,16.5,32.11,18.11,36.1s2.32,8,5.07,12.66,7.08,9.18,10.51,10.25c5.08,1.6,11.66-.62,11.89-3.68s-7.46-8.2-9.54-15a29.76,29.76,0,0,0,4.35,2.36c2.07.85,4.37.67,5.06-.5s-1.38-1.89-3.22-3.72c-1.09-1.09-3-3.53-5.52-5.69-1.68-1.46-4.44-1.89-5.68-3.49-.67-.86-3.69-8.27-6-14.87-2.81-8.17-6.51-19.06-6.51-19.06l15.14-31.54S444.83,127.4,434.74,109Z"/><path class="cls-9" d="M417.35,211.5s3.49-7.05,12.92-6.82l-2.49-5.55s-9.21.65-13.09,6.88Z"/><path class="cls-20" d="M416.34,205.51l2.05,2.88a1.9,1.9,0,0,0,2.7.41l3.62-2.72a2.08,2.08,0,0,0,.47-2.8l-1.88-2.77a1.89,1.89,0,0,0-2.69-.48l-3.82,2.74A2,2,0,0,0,416.34,205.51Z"/><path class="cls-8" d="M415.66,205.44l2,2.88a1.9,1.9,0,0,0,2.7.41L424,206a2.08,2.08,0,0,0,.47-2.8l-1.88-2.77a1.89,1.89,0,0,0-2.69-.48l-3.82,2.74A2,2,0,0,0,415.66,205.44Z"/><path class="cls-16" d="M424.1,204.49a1.36,1.36,0,0,1-.51.93L420,208.14a1.14,1.14,0,0,1-.89.23,1.18,1.18,0,0,1-.77-.48L416.26,205a1.23,1.23,0,0,1-.22-.83,1.21,1.21,0,0,1,.5-.87l3.82-2.75a1.16,1.16,0,0,1,.88-.21,1.25,1.25,0,0,1,.77.5l1.88,2.78a1.29,1.29,0,0,1,.21.86Z"/></g><text class="cls-23" transform="translate(450.09 30.7)">Repeticiones</text></g></g></svg>